<svg xmlns="http://www.w3.org/2000/svg" width="40" height="40" fill="none" viewBox="0 0 40 40">
    <path fill="#2F3045" fill-rule="evenodd" d="M20 38.804c10.386 0 18.804-8.419 18.804-18.804C38.804 9.615 30.385 1.196 20 1.196 9.615 1.196 1.196 9.615 1.196 20c0 10.386 8.419 18.804 18.804 18.804zM20 40c11.046 0 20-8.954 20-20S31.046 0 20 0 0 8.954 0 20s8.954 20 20 20z" clip-rule="evenodd"/>
    <path fill="#2F3045" d="M39.351 20c0 10.689-8.664 19.353-19.352 19.353S.646 30.689.646 20C.646 9.312 9.311.648 20 .648c10.688 0 19.352 8.664 19.352 19.353z"/>
    <path fill="#03E1E4" fill-rule="evenodd" d="M19.999 38.606c10.275 0 18.605-8.33 18.605-18.605 0-10.276-8.33-18.606-18.605-18.606-10.276 0-18.606 8.33-18.606 18.606 0 10.275 8.33 18.605 18.606 18.605zm0 .747c10.688 0 19.352-8.664 19.352-19.352C39.351 9.312 30.687.648 19.999.648S.646 9.312.646 20.001C.646 30.689 9.311 39.353 20 39.353z" clip-rule="evenodd"/>
    <g opacity=".4">
        <path fill="#12121B" d="M29.816 35.17a.822.822 0 1 1 0-1.645.822.822 0 0 1 0 1.644z" opacity=".4"/>
        <path fill="#8984B1" fill-rule="evenodd" d="M29.34 34.346a.473.473 0 1 0 .947 0 .473.473 0 0 0-.946 0zm-.149 0a.623.623 0 1 0 1.246 0 .623.623 0 0 0-1.246 0z" clip-rule="evenodd" opacity=".4"/>
        <path fill="#12121B" d="M33.526 30.786a.822.822 0 1 0-1.644 0 .822.822 0 0 0 1.644 0z" opacity=".4"/>
        <path fill="#8984B1" fill-rule="evenodd" d="M32.703 30.312a.473.473 0 1 1 0 .947.473.473 0 0 1 0-.947zm0-.15a.623.623 0 1 1 0 1.246.623.623 0 0 1 0-1.245z" clip-rule="evenodd" opacity=".4"/>
        <path fill="#12121B" d="M33.526 23.96a.822.822 0 1 0-1.644 0 .822.822 0 0 0 1.644 0z" opacity=".4"/>
        <path fill="#8984B1" fill-rule="evenodd" d="M32.703 23.487a.473.473 0 1 1 0 .947.473.473 0 0 1 0-.947zm0-.15a.623.623 0 1 1 0 1.246.623.623 0 0 1 0-1.245z" clip-rule="evenodd" opacity=".4"/>
        <path fill="#12121B" d="M35.518 22.417a.822.822 0 1 0-1.644 0 .822.822 0 0 0 1.644 0z" opacity=".4"/>
        <path fill="#8984B1" fill-rule="evenodd" d="M34.698 21.944a.473.473 0 1 1 0 .947.473.473 0 0 1 0-.947zm0-.15a.623.623 0 1 1 0 1.246.623.623 0 0 1 0-1.246z" clip-rule="evenodd" opacity=".4"/>
        <path fill="#12121B" d="M37.063 18.058a.822.822 0 1 0-1.644 0 .822.822 0 0 0 1.644 0z" opacity=".4"/>
        <path fill="#8984B1" fill-rule="evenodd" d="M36.242 17.585a.473.473 0 1 1 0 .946.473.473 0 0 1 0-.946zm0-.15a.623.623 0 1 1 0 1.246.623.623 0 0 1 0-1.246z" clip-rule="evenodd" opacity=".4"/>
        <path fill="#12121B" d="M35.518 28.594a.822.822 0 1 0-1.644 0 .822.822 0 0 0 1.644 0z" opacity=".4"/>
        <path fill="#8984B1" fill-rule="evenodd" d="M34.698 28.12a.473.473 0 1 1 0 .947.473.473 0 0 1 0-.947zm0-.15a.623.623 0 1 1 0 1.246.623.623 0 0 1 0-1.245z" clip-rule="evenodd" opacity=".4"/>
        <path fill="#12121B" d="M34.025 27.398a.822.822 0 1 0-1.644 0 .822.822 0 0 0 1.644 0z" opacity=".4"/>
        <path fill="#8984B1" fill-rule="evenodd" d="M33.203 26.924a.473.473 0 1 1 0 .947.473.473 0 0 1 0-.947zm0-.15a.623.623 0 1 1 0 1.246.623.623 0 0 1 0-1.245z" clip-rule="evenodd" opacity=".4"/>
        <path fill="#12121B" d="M35.17 25.605a.822.822 0 1 0-1.644 0 .822.822 0 0 0 1.644 0z" opacity=".4"/>
        <path fill="#8984B1" fill-rule="evenodd" d="M34.348 25.131a.473.473 0 1 1 0 .947.473.473 0 0 1 0-.947zm0-.15a.623.623 0 1 1 0 1.246.623.623 0 0 1 0-1.245z" clip-rule="evenodd" opacity=".4"/>
        <path fill="#12121B" fill-rule="evenodd" d="M29.294 31.756h1.194l.623-.622h.948v-.598h-1.195l-.623.622h-.699l-1.37-1.37h-2.091v.598h1.844l1.37 1.37zm-.373-2.316h2.482l.597-.548h2.001v-.598h-2.233l-.598.548h-2.002l-1.643-1.644h-3.038v.598h2.79l1.644 1.644zm.373-1.694h3.262v-.598h-3.014l-1.37-1.37h-5.404v.598h5.157l1.37 1.37zm.947-1.843h3.436v-.598h-3.189l-1.32-1.32h-1.891l-.623.623h-3.886v.598h4.134l.623-.623h1.396l1.32 1.32zm0-1.669h1.818v-.597h-1.57l-1.32-1.32h-4.682v.597h4.434l1.32 1.32zm1.22-1.519h2.59v-.598h-2.342l-.423-.422v-.748l-1.42-1.42h-1.319l-.946.946h-1.52v.598h1.768l.946-.946h.823l1.07 1.07v.747l.773.773z" clip-rule="evenodd" opacity=".4"/>
        <path fill="#8984B1" fill-rule="evenodd" d="M29.387 31.532h1.009l.622-.622h1.14v-.15h-1.202l-.622.623h-.885l-1.37-1.37h-1.998v.15h1.936l1.37 1.37zm-.373-2.316h2.301l.598-.548h2.188v-.15h-2.246l-.598.549h-2.181l-1.644-1.644h-2.945v.15h2.883l1.644 1.643zm.373-1.694h3.27v-.149h-3.208l-1.37-1.37h-5.31v.15h5.248l1.37 1.37zm.947-1.843h3.443v-.15h-3.381l-1.32-1.32H27.37l-.623.623h-3.979v.15h4.041l.623-.623h1.582l1.32 1.32zm0-1.668h1.774v-.15h-1.712l-1.32-1.32h-4.59v.15h4.528l1.32 1.32zm1.22-1.52h2.547v-.15h-2.485l-.554-.553v-.747l-1.289-1.29H28.64l-.946.947H26.08v.15h1.675l.946-.947h1.01l1.2 1.202v.747l.642.641z" clip-rule="evenodd" opacity=".4"/>
        <path fill="#12121B" d="M31.983 7.447a.822.822 0 1 1-1.644 0 .822.822 0 0 1 1.644 0z" opacity=".4"/>
        <path fill="#8984B1" fill-rule="evenodd" d="M31.16 7.921a.473.473 0 1 0 0-.946.473.473 0 0 0 0 .946zm0 .15a.623.623 0 1 0 0-1.246.623.623 0 0 0 0 1.246z" clip-rule="evenodd" opacity=".4"/>
        <path fill="#12121B" d="M31.983 14.272a.822.822 0 1 1-1.644 0 .822.822 0 0 1 1.644 0z" opacity=".4"/>
        <path fill="#8984B1" fill-rule="evenodd" d="M31.16 14.746a.473.473 0 1 0 0-.947.473.473 0 0 0 0 .947zm0 .149a.623.623 0 1 0 0-1.245.623.623 0 0 0 0 1.245z" clip-rule="evenodd" opacity=".4"/>
        <path fill="#12121B" d="M33.975 15.816a.822.822 0 1 1-1.644 0 .822.822 0 0 1 1.644 0z" opacity=".4"/>
        <path fill="#8984B1" fill-rule="evenodd" d="M33.153 16.29a.473.473 0 1 0 0-.947.473.473 0 0 0 0 .946zm0 .149a.623.623 0 1 0 0-1.245.623.623 0 0 0 0 1.245z" clip-rule="evenodd" opacity=".4"/>
        <path fill="#12121B" d="M33.975 9.64a.822.822 0 1 1-1.644 0 .822.822 0 0 1 1.644 0z" opacity=".4"/>
        <path fill="#8984B1" fill-rule="evenodd" d="M33.153 10.112a.473.473 0 1 0 0-.946.473.473 0 0 0 0 .946zm0 .15a.623.623 0 1 0 0-1.246.623.623 0 0 0 0 1.246z" clip-rule="evenodd" opacity=".4"/>
        <path fill="#12121B" d="M32.48 10.834a.822.822 0 1 1-1.644 0 .822.822 0 0 1 1.644 0z" opacity=".4"/>
        <path fill="#8984B1" fill-rule="evenodd" d="M31.658 11.308a.473.473 0 1 0 0-.947.473.473 0 0 0 0 .947zm0 .15a.623.623 0 1 0 0-1.246.623.623 0 0 0 0 1.245z" clip-rule="evenodd" opacity=".4"/>
        <path fill="#12121B" d="M33.627 12.629a.822.822 0 1 1-1.644 0 .822.822 0 0 1 1.644 0z" opacity=".4"/>
        <path fill="#8984B1" fill-rule="evenodd" d="M32.805 13.101a.473.473 0 1 0 0-.946.473.473 0 0 0 0 .946zm0 .15a.623.623 0 1 0 0-1.245.623.623 0 0 0 0 1.245z" clip-rule="evenodd" opacity=".4"/>
        <path fill="#12121B" fill-rule="evenodd" d="M27.748 6.477h1.194l.623.623h.947v.598h-1.195l-.623-.623h-.698l-1.37 1.37h-2.092v-.598h1.844l1.37-1.37zm-.374 2.317h2.482l.598.548h2v.597h-2.233l-.598-.548h-2.001l-1.644 1.644H22.94v-.598h2.79l1.644-1.643zm.374 1.693h3.262v.598h-3.015l-1.37 1.37h-5.403v-.598h5.156l1.37-1.37zm.946 1.843h3.437v.598h-3.19l-1.32 1.32h-1.89l-.623-.622h-3.886v-.598h4.133l.623.622h1.396l1.32-1.32zm0 1.67h1.818v.597h-1.57l-1.32 1.32h-3.686v-.598h3.438l1.32-1.32zm1.22 1.518h2.59v.598h-2.342l-.422.423v.747l-1.42 1.42H27l-.946-.946h-1.52v-.598h1.768l.946.947h.824l1.07-1.07v-.748l.773-.773z" clip-rule="evenodd" opacity=".4"/>
        <path fill="#8984B1" fill-rule="evenodd" d="M27.84 6.701h1.01l.622.623h1.14v.15H29.41l-.623-.624h-.884l-1.37 1.37h-1.999v-.15h1.937l1.37-1.369zm-.373 2.316h2.302l.598.548h2.187v.15h-2.246l-.597-.548h-2.182l-1.644 1.644H22.94v-.15h2.883l1.644-1.644zm.374 1.694h3.268v.15h-3.206l-1.37 1.37h-5.311v-.15h5.249l1.37-1.37zm.946 1.843h3.443v.15h-3.38l-1.32 1.32h-1.707l-.622-.623h-3.98v-.15h4.042l.622.623h1.582l1.32-1.32zm0 1.669h1.775v.15h-1.713l-1.32 1.32h-3.593v-.15h3.531l1.32-1.32zm1.22 1.52h2.547v.149H30.07l-.553.553v.748l-1.29 1.289h-1.133l-.946-.947h-1.613v-.15h1.675l.947.947h1.009l1.201-1.201v-.747l.642-.642z" clip-rule="evenodd" opacity=".4"/>
        <path fill="#12121B" d="M14.46 4.285a.822.822 0 1 1 0 1.644.822.822 0 0 1 0-1.644z" opacity=".4"/>
        <path fill="#8984B1" fill-rule="evenodd" d="M14.933 5.107a.473.473 0 1 0-.947 0 .473.473 0 0 0 .947 0zm.15 0a.623.623 0 1 0-1.246 0 .623.623 0 0 0 1.245 0z" clip-rule="evenodd" opacity=".4"/>
        <path fill="#12121B" d="M10.886 4.683a.822.822 0 1 1 0 1.643.822.822 0 0 1 0-1.643z" opacity=".4"/>
        <path fill="#8984B1" fill-rule="evenodd" d="M11.36 5.505a.473.473 0 1 0-.946 0 .473.473 0 0 0 .947 0zm.15 0a.623.623 0 1 0-1.245 0 .623.623 0 0 0 1.245 0z" clip-rule="evenodd" opacity=".4"/>
        <path fill="#12121B" d="M9.442 6.526a.822.822 0 1 1 0 1.644.822.822 0 0 1 0-1.644z" opacity=".4"/>
        <path fill="#8984B1" fill-rule="evenodd" d="M9.915 7.349a.473.473 0 1 0-.946 0 .473.473 0 0 0 .946 0zm.15 0a.623.623 0 1 0-1.246 0 .623.623 0 0 0 1.246 0z" clip-rule="evenodd" opacity=".4"/>
        <path fill="#12121B" d="M13.626 35.419a.822.822 0 1 1 0 1.643.822.822 0 0 1 0-1.643z" opacity=".4"/>
        <path fill="#8984B1" fill-rule="evenodd" d="M14.1 36.24a.473.473 0 1 0-.946 0 .473.473 0 0 0 .946 0zm.15 0a.623.623 0 1 0-1.246 0 .623.623 0 0 0 1.245 0z" clip-rule="evenodd" opacity=".4"/>
        <path fill="#12121B" d="M25.582 2.59a.822.822 0 1 1 0 1.645.822.822 0 0 1 0-1.644z" opacity=".4"/>
        <path fill="#8984B1" fill-rule="evenodd" d="M26.055 3.413a.473.473 0 1 0-.946 0 .473.473 0 0 0 .946 0zm.15 0a.623.623 0 1 0-1.246 0 .623.623 0 0 0 1.245 0z" clip-rule="evenodd" opacity=".4"/>
        <path fill="#12121B" d="M21.285 4.285a.822.822 0 1 1 0 1.644.822.822 0 0 1 0-1.644z" opacity=".4"/>
        <path fill="#8984B1" fill-rule="evenodd" d="M21.758 5.107a.473.473 0 1 0-.946 0 .473.473 0 0 0 .946 0zm.15 0a.623.623 0 1 0-1.246 0 .623.623 0 0 0 1.246 0z" clip-rule="evenodd" opacity=".4"/>
        <path fill="#12121B" d="M22.828 2.293a.822.822 0 1 1 0 1.643.822.822 0 0 1 0-1.643z" opacity=".4"/>
        <path fill="#8984B1" fill-rule="evenodd" d="M23.301 3.114a.473.473 0 1 0-.946 0 .473.473 0 0 0 .946 0zm.15 0a.623.623 0 1 0-1.246 0 .623.623 0 0 0 1.246 0z" clip-rule="evenodd" opacity=".4"/>
        <path fill="#12121B" d="M16.651 2.293a.822.822 0 1 1 0 1.643.822.822 0 0 1 0-1.643z" opacity=".4"/>
        <path fill="#8984B1" fill-rule="evenodd" d="M17.126 3.114a.473.473 0 1 0-.947 0 .473.473 0 0 0 .947 0zm.15 0a.623.623 0 1 0-1.246 0 .623.623 0 0 0 1.245 0z" clip-rule="evenodd" opacity=".4"/>
        <path fill="#12121B" d="M17.848 3.787a.822.822 0 1 1 0 1.644.822.822 0 0 1 0-1.644z" opacity=".4"/>
        <path fill="#8984B1" fill-rule="evenodd" d="M18.32 4.608a.473.473 0 1 0-.946 0 .473.473 0 0 0 .947 0zm.15 0a.623.623 0 1 0-1.245 0 .623.623 0 0 0 1.245 0z" clip-rule="evenodd" opacity=".4"/>
        <path fill="#12121B" d="M19.641 2.642a.822.822 0 1 1 0 1.643.822.822 0 0 1 0-1.643z" opacity=".4"/>
        <path fill="#8984B1" fill-rule="evenodd" d="M20.114 3.463a.473.473 0 1 0-.946 0 .473.473 0 0 0 .946 0zm.15 0a.623.623 0 1 0-1.246 0 .623.623 0 0 0 1.246 0z" clip-rule="evenodd" opacity=".4"/>
        <path fill="#12121B" fill-rule="evenodd" d="M13.489 8.519V7.325l.623-.623v-.947h.597V6.95l-.622.622v.7l1.37 1.37v2.09h-.598V9.89l-1.37-1.37zm2.316.373V6.411l.548-.598v-2h.598v2.233l-.548.597v2.002l1.644 1.644v3.037h-.598v-2.79l-1.644-1.644zM17.5 8.52V5.257h.598V8.27l1.282 1.283-.423.422L17.5 8.52zm1.843-.947V4.136h.598v3.189l1.32 1.32v1.891l-.71.71-.423-.422.535-.535V8.892l-1.32-1.32zm1.669 0V5.755h.598v1.57l1.32 1.32v3.685h-.598V8.892l-1.32-1.32zm1.519-1.22v-2.59h.598v2.342l.423.423h.747l1.42 1.42v1.319l-.946.947v1.52h-.598V9.964l.946-.947v-.823l-1.07-1.07h-.747l-.773-.773z" clip-rule="evenodd" opacity=".4"/>
        <path fill="#8984B1" fill-rule="evenodd" d="M13.713 8.426V7.418l.622-.623v-1.14h.15v1.202l-.623.623v.884l1.37 1.37v1.998h-.15V9.796l-1.37-1.37zm2.316.374V6.498l.548-.598V3.713h.15v2.245l-.549.598v2.182l1.644 1.644v2.944h-.15v-2.883L16.03 8.8zm1.694-.374V5.157h.149v3.207l1.348 1.348-.106.106-1.391-1.392zm1.843-.946V4.036h.15v3.382l1.32 1.32v1.705l-.645.645-.106-.106.6-.6V8.8l-1.32-1.32zm1.669 0V5.705h.149v1.713l1.32 1.32v3.592h-.15V8.8l-1.32-1.32zm1.519-1.22V3.712h.15v2.484l.553.554h.747l1.29 1.29v1.132l-.947.947v1.613h-.15v-1.675l.947-.947V8.102l-1.202-1.201h-.747l-.641-.642z" clip-rule="evenodd" opacity=".4"/>
        <path fill="#12121B" fill-rule="evenodd" d="M26.283 3.607L27.3 4.623V5.64l-1.096 1.096V7.82h-.648V6.467l1.096-1.096v-.48l-.827-.826.458-.458zM12.346 5.83h-.812V5.18h1.08l.788.787v1.853h-.648V6.237l-.408-.408zM11.02 8.444l-.851-.852-.458.458 1.041 1.041h1.42l.582.583v.912h.648v-1.18l-.962-.962h-1.42zm2.431 22.814h.648v1.734l1.196 1.196v.79l-.992.992-.458-.458.802-.801v-.255l-1.196-1.196v-2.002zm13.674.648h.648v1.086l.458.458h1.02l.245.244-.378.379v.024h-.025l-.055.055-.054-.055h-1.022l-.837-.837v-1.354z" clip-rule="evenodd" opacity=".4"/>
        <path fill="#8984B1" fill-rule="evenodd" d="M26.059 3.734l.993.993v.81l-1.096 1.095v1.19h-.15V6.57l1.096-1.096V4.79l-.95-.95.107-.105zM12.45 5.58h-.966v-.15h1.027l.642.642v1.75h-.15V6.134l-.553-.554zm-1.533 3.113l-.974-.974-.106.106 1.019 1.018h1.42l.728.728v1.015h.149V9.51l-.816-.816h-1.42zm2.784 22.566h.15v1.837l1.195 1.196v.584l-.969.969-.105-.106.925-.925v-.46l-1.196-1.196v-1.9zm13.674.647h.15v1.19l.603.604h1.021l.271.27-.106.106-.227-.227h-1.02l-.692-.691v-1.252z" clip-rule="evenodd" opacity=".4"/>
        <path fill="#12121B" d="M25.307 35.493a.822.822 0 1 1 0-1.644.822.822 0 0 1 0 1.644z" opacity=".4"/>
        <path fill="#8984B1" fill-rule="evenodd" d="M24.834 34.671a.473.473 0 1 0 .947 0 .473.473 0 0 0-.947 0zm-.149 0a.623.623 0 1 0 1.245 0 .623.623 0 0 0-1.245 0z" clip-rule="evenodd" opacity=".4"/>
        <path fill="#12121B" d="M18.482 35.493a.822.822 0 1 1 0-1.643.822.822 0 0 1 0 1.643z" opacity=".4"/>
        <path fill="#8984B1" fill-rule="evenodd" d="M18.01 34.671a.473.473 0 1 0 .946 0 .473.473 0 0 0-.947 0zm-.15 0a.623.623 0 1 0 1.245 0 .623.623 0 0 0-1.245 0z" clip-rule="evenodd" opacity=".4"/>
        <path fill="#12121B" d="M16.94 37.486a.822.822 0 1 1 0-1.644.822.822 0 0 1 0 1.644z" opacity=".4"/>
        <path fill="#8984B1" fill-rule="evenodd" d="M16.466 36.664a.473.473 0 1 0 .947 0 .473.473 0 0 0-.947 0zm-.15 0a.623.623 0 1 0 1.246 0 .623.623 0 0 0-1.245 0z" clip-rule="evenodd" opacity=".4"/>
        <path fill="#12121B" d="M23.116 37.486a.822.822 0 1 1 0-1.644.822.822 0 0 1 0 1.644z" opacity=".4"/>
        <path fill="#8984B1" fill-rule="evenodd" d="M22.642 36.664a.473.473 0 1 0 .946 0 .473.473 0 0 0-.946 0zm-.15 0a.623.623 0 1 0 1.246 0 .623.623 0 0 0-1.246 0z" clip-rule="evenodd" opacity=".4"/>
        <path fill="#12121B" d="M21.92 35.991a.822.822 0 1 1 0-1.644.822.822 0 0 1 0 1.644z" opacity=".4"/>
        <path fill="#8984B1" fill-rule="evenodd" d="M21.447 35.17a.473.473 0 1 0 .946 0 .473.473 0 0 0-.946 0zm-.15 0a.623.623 0 1 0 1.246 0 .623.623 0 0 0-1.246 0z" clip-rule="evenodd" opacity=".4"/>
        <path fill="#12121B" d="M20.126 37.136a.822.822 0 1 1 0-1.643.822.822 0 0 1 0 1.643z" opacity=".4"/>
        <path fill="#8984B1" fill-rule="evenodd" d="M19.652 36.315a.473.473 0 1 0 .946 0 .473.473 0 0 0-.946 0zm-.15 0a.623.623 0 1 0 1.245 0 .623.623 0 0 0-1.245 0z" clip-rule="evenodd" opacity=".4"/>
        <path fill="#12121B" fill-rule="evenodd" d="M26.278 31.26v1.193l-.622.623v.947h-.598v-1.195l.623-.622v-.7l-1.37-1.37v-2.09h.598v1.844l1.37 1.37zm-2.316-.374v2.481l-.548.598v2h-.598v-2.232l.548-.598v-2.002l-1.643-1.643v-3.038h.597v2.79l1.644 1.644zm-1.694.373v3.262h-.597v-3.014l-1.37-1.37v-2.839h.598v2.592l1.37 1.37zm-1.843.947v3.436h-.597v-3.189l-1.32-1.32v-1.891l.622-.623v-1.246h.598v1.494l-.623.622v1.397l1.32 1.32zm-1.668 0v1.817h-.598v-1.57l-1.32-1.32v-3.685h.598v3.438l1.32 1.32zm-1.52 1.22v2.59h-.597v-2.342l-.423-.423h-.747l-1.42-1.42v-1.319l.946-.946v-1.52h.598v1.767l-.947.947v.823l1.07 1.07h.748l.772.773z" clip-rule="evenodd" opacity=".4"/>
        <path fill="#8984B1" fill-rule="evenodd" d="M26.055 31.352v1.008l-.623.623v1.14h-.15V32.92l.623-.623v-.885l-1.37-1.37v-1.998h.15v1.937l1.37 1.37zm-2.317-.374v2.301l-.548.598v2.188h-.149v-2.246l.548-.598V31.04l-1.644-1.644V26.45h.15v2.883l1.643 1.644zm-1.693.373v3.27h-.15v-3.208l-1.37-1.37v-2.596h.15v2.535l1.37 1.37zm-1.843.947v3.443h-.15V32.36l-1.32-1.32v-1.706l.623-.623v-2.385h.15v2.447l-.623.623v1.582l1.32 1.32zm-1.669 0v1.774h-.15V32.36l-1.32-1.32v-3.593h.15v3.53l1.32 1.32zm-1.52 1.22v2.547h-.149V33.58l-.554-.554h-.747l-1.29-1.289v-1.133l.947-.946v-1.613h.15v1.675l-.947.946v1.01l1.202 1.2h.747l.642.643z" clip-rule="evenodd" opacity=".4"/>
        <path fill="#12121B" d="M5.531 11.034a.822.822 0 1 0 1.644 0 .822.822 0 0 0-1.644 0z" opacity=".4"/>
        <path fill="#8984B1" fill-rule="evenodd" d="M6.354 11.508a.473.473 0 1 1 0-.947.473.473 0 0 1 0 .947zm0 .15a.623.623 0 1 1 0-1.246.623.623 0 0 1 0 1.245z" clip-rule="evenodd" opacity=".4"/>
        <path fill="#12121B" d="M5.531 17.86a.822.822 0 1 0 1.644 0 .822.822 0 0 0-1.644 0z" opacity=".4"/>
        <path fill="#8984B1" fill-rule="evenodd" d="M6.354 18.332a.473.473 0 1 1 0-.946.473.473 0 0 1 0 .946zm0 .15a.623.623 0 1 1 0-1.246.623.623 0 0 1 0 1.246z" clip-rule="evenodd" opacity=".4"/>
        <path fill="#12121B" d="M3.54 19.403a.822.822 0 1 0 1.643 0 .822.822 0 0 0-1.644 0z" opacity=".4"/>
        <path fill="#8984B1" fill-rule="evenodd" d="M4.361 19.877a.473.473 0 1 1 0-.946.473.473 0 0 1 0 .946zm0 .15a.623.623 0 1 1 0-1.246.623.623 0 0 1 0 1.245z" clip-rule="evenodd" opacity=".4"/>
        <path fill="#12121B" d="M4.185 22.79a.822.822 0 1 0 1.644 0 .822.822 0 0 0-1.644 0z" opacity=".4"/>
        <path fill="#8984B1" fill-rule="evenodd" d="M5.008 23.263a.473.473 0 1 1 0-.946.473.473 0 0 1 0 .946zm0 .15a.623.623 0 1 1 0-1.246.623.623 0 0 1 0 1.245z" clip-rule="evenodd" opacity=".4"/>
        <path fill="#12121B" d="M3.54 13.226a.822.822 0 1 0 1.643 0 .822.822 0 0 0-1.644 0z" opacity=".4"/>
        <path fill="#8984B1" fill-rule="evenodd" d="M4.361 13.7a.473.473 0 1 1 0-.947.473.473 0 0 1 0 .947zm0 .15a.623.623 0 1 1 0-1.246.623.623 0 0 1 0 1.245z" clip-rule="evenodd" opacity=".4"/>
        <path fill="#12121B" d="M5.034 14.422a.822.822 0 1 0 1.644 0 .822.822 0 0 0-1.644 0z" opacity=".4"/>
        <path fill="#8984B1" fill-rule="evenodd" d="M5.856 14.896a.473.473 0 1 1 0-.947.473.473 0 0 1 0 .947zm0 .15a.623.623 0 1 1 0-1.246.623.623 0 0 1 0 1.245z" clip-rule="evenodd" opacity=".4"/>
        <path fill="#12121B" d="M3.887 16.215a.822.822 0 1 0 1.644 0 .822.822 0 0 0-1.644 0z" opacity=".4"/>
        <path fill="#8984B1" fill-rule="evenodd" d="M4.71 16.689a.473.473 0 1 1 0-.946.473.473 0 0 1 0 .946zm0 .15a.623.623 0 1 1 0-1.246.623.623 0 0 1 0 1.245z" clip-rule="evenodd" opacity=".4"/>
        <path fill="#12121B" fill-rule="evenodd" d="M9.764 10.063H8.57l-.622.623H7v.597h1.194l.623-.622h.699l1.37 1.37h2.091v-.598h-1.844l-1.37-1.37zm.374 2.316H7.656l-.597.548H5.058v.598H7.29l.598-.548H9.89l1.644 1.644h3.038v-.598h-2.79l-1.644-1.644zm-.374 1.694H6.502v.598h3.015l1.37 1.37h5.404v-.598h-5.157l-1.37-1.37zm-.946 1.843H5.382v.598H8.57l1.32 1.32h1.892l.623-.623h3.886v-.598h-4.134l-.623.623h-1.396l-1.32-1.32zm0 1.669H7.001v.598h1.57l1.32 1.32h4.681v-.598h-4.434l-1.32-1.32zm-1.22 1.52h-2.59v.597H7.35l.423.422v.748l1.42 1.42h1.319l.946-.946h1.52v-.598H11.21l-.946.946h-.823l-1.07-1.07v-.747l-.773-.773z" clip-rule="evenodd" opacity=".4"/>
        <path fill="#8984B1" fill-rule="evenodd" d="M9.672 10.287H8.663l-.622.622H6.9v.15h1.202l.622-.623h.885l1.37 1.37h1.998v-.15h-1.937l-1.37-1.37zm.373 2.316H7.744l-.598.548H4.958v.15h2.246l.598-.549h2.181l1.644 1.644h2.945v-.15H11.69l-1.644-1.643zm-.373 1.694h-3.27v.15H9.61l1.37 1.37h5.31v-.15h-5.248l-1.37-1.37zm-.947 1.843H5.282v.15h3.381l1.32 1.32h1.706l.623-.623h3.979v-.15H12.25l-.623.623h-1.582l-1.32-1.32zm0 1.669H6.951v.149h1.712l1.32 1.32h4.59v-.15h-4.528l-1.32-1.32zm-1.22 1.519H4.958v.15h2.485l.554.553v.748l1.289 1.289h1.133l.946-.947h1.613v-.15h-1.675l-.946.947h-1.01l-1.2-1.201v-.747l-.642-.642z" clip-rule="evenodd" opacity=".4"/>
        <path fill="#12121B" d="M8.072 32.081a.822.822 0 1 1 1.644 0 .822.822 0 0 1-1.644 0z" opacity=".4"/>
        <path fill="#8984B1" fill-rule="evenodd" d="M8.894 31.608a.473.473 0 1 0 0 .946.473.473 0 0 0 0-.947zm0-.15a.623.623 0 1 0 0 1.245.623.623 0 0 0 0-1.245z" clip-rule="evenodd" opacity=".4"/>
        <path fill="#12121B" d="M8.072 25.655a.822.822 0 1 1 1.644 0 .822.822 0 0 1-1.644 0z" opacity=".4"/>
        <path fill="#8984B1" fill-rule="evenodd" d="M8.894 25.182a.473.473 0 1 0 0 .946.473.473 0 0 0 0-.946zm0-.15a.623.623 0 1 0 0 1.245.623.623 0 0 0 0-1.245z" clip-rule="evenodd" opacity=".4"/>
        <path fill="#12121B" d="M6.08 24.11a.822.822 0 1 1 1.644 0 .822.822 0 0 1-1.644 0z" opacity=".4"/>
        <path fill="#8984B1" fill-rule="evenodd" d="M6.902 23.638a.473.473 0 1 0 0 .946.473.473 0 0 0 0-.946zm0-.15a.623.623 0 1 0 0 1.246.623.623 0 0 0 0-1.246z" clip-rule="evenodd" opacity=".4"/>
        <path fill="#12121B" d="M6.08 30.287a.822.822 0 1 1 1.643 0 .822.822 0 0 1-1.643 0z" opacity=".4"/>
        <path fill="#8984B1" fill-rule="evenodd" d="M6.902 29.814a.473.473 0 1 0 0 .947.473.473 0 0 0 0-.947zm0-.15a.623.623 0 1 0 0 1.246.623.623 0 0 0 0-1.245z" clip-rule="evenodd" opacity=".4"/>
        <path fill="#12121B" d="M7.575 29.092a.822.822 0 1 1 1.644 0 .822.822 0 0 1-1.644 0z" opacity=".4"/>
        <path fill="#8984B1" fill-rule="evenodd" d="M8.395 28.62a.473.473 0 1 0 0 .946.473.473 0 0 0 0-.947zm0-.15a.623.623 0 1 0 0 1.245.623.623 0 0 0 0-1.245z" clip-rule="evenodd" opacity=".4"/>
        <path fill="#12121B" d="M6.428 27.298a.822.822 0 1 1 1.644 0 .822.822 0 0 1-1.644 0z" opacity=".4"/>
        <path fill="#8984B1" fill-rule="evenodd" d="M7.25 26.826a.473.473 0 1 0 0 .946.473.473 0 0 0 0-.946zm0-.15a.623.623 0 1 0 0 1.246.623.623 0 0 0 0-1.246z" clip-rule="evenodd" opacity=".4"/>
        <path fill="#12121B" fill-rule="evenodd" d="M29.98 17.31h1.812l1.743 1.744h1.276l.777-.777.458.458-.966.967h-1.813l-1.743-1.744h-1.276l-1.15 1.15-.459-.457 1.34-1.34zM7.788 21.72h4.219v.647H8.056l-.772.772H5.63v-.648h1.386l.772-.772z" clip-rule="evenodd" opacity=".4"/>
        <path fill="#8984B1" fill-rule="evenodd" d="M30.083 17.56h1.606l1.743 1.743h1.482l.85-.85.106.106-.894.893H33.37l-1.743-1.743h-1.482l-1.224 1.223-.106-.105 1.268-1.268zM7.89 21.968h4.364v.15H7.954l-.772.772H5.63v-.15h1.488l.772-.772z" clip-rule="evenodd" opacity=".4"/>
        <path fill="#12121B" fill-rule="evenodd" d="M12.306 32.953H11.11l-.622-.623h-.947v-.598h1.194l.623.623h.699l1.37-1.37h2.091v.598h-1.844l-1.37 1.37zm.373-1.819h-2.482l-.597-.547H7.599v-.598h2.233l.598.548h2.002l1.643-1.644h3.038v.598h-2.79l-1.644 1.643zm-.373-1.693H9.043v-.598h3.015l1.37-1.37h4.407v.598h-4.16l-1.37 1.37zm-.947-1.843H7.923V27h3.188l1.32-1.32h1.892l.623.623h2.89v.598h-3.138l-.623-.623H12.68l-1.32 1.32zm0-1.669H9.542v-.598h1.57l1.32-1.32h4.681v.598H12.68l-1.32 1.32zm-1.22-1.52h-2.59v-.597h2.342l.423-.422v-.748l1.42-1.42h1.319l.946.946h1.52v.598h-1.768l-.946-.946h-.823l-1.07 1.07v.747l-.773.773z" clip-rule="evenodd" opacity=".4"/>
        <path fill="#8984B1" fill-rule="evenodd" d="M12.212 32.727h-1.009l-.622-.622H9.44v-.15h1.202l.622.623h.885l1.37-1.37h1.998v.15h-1.937l-1.37 1.37zm.373-1.818h-2.301l-.598-.548H7.498v-.15h2.246l.598.549h2.181l1.644-1.644h2.945v.15H14.23l-1.644 1.643zm-.373-1.694h-3.27v-.149h3.208l1.37-1.37h4.813v.15h-4.751l-1.37 1.37zm-.947-1.843H7.822v-.149h3.381l1.32-1.32h1.706l.623.623h3.48v.149H14.79l-.623-.623h-1.582l-1.32 1.32zm0-1.668H9.491v-.15h1.712l1.32-1.32h4.59v.15h-4.528l-1.32 1.32zm-1.22-1.52H7.498v-.149h2.485l.554-.554v-.747l1.289-1.29h1.133l.946.947h1.613v.15h-1.675l-.946-.947h-1.01l-1.2 1.202v.747l-.642.641z" clip-rule="evenodd" opacity=".4"/>
    </g>
    <path fill="#12121B" fill-rule="evenodd" d="M11.99 22.103v-3.48h2.9V15.04h-2.9v-1.72h2.9V8.018h10.937V9.84h1.492v1.492h1.491v7.457H27.32v1.491h-1.492v1.823H24.17v1.989h1.657v1.988h1.657v1.99h1.658v3.48h-4.143v-3.48h-1.492v-1.99H21.85v-1.988h-1.657v-1.989H18.37v9.446h-3.48v-9.446h-2.9zm0 0H9.064v-3.48h2.926V15.04H9.064v-3.542h2.9V8.035h12.08v.645h1.491v1.492h1.492v9.777h-1.492v1.491h-1.491v3.48H25.7v1.99h1.657v4.68h-4.697v-1.892h-1.576V28.07h-1.598v-1.843H18.37l-.017 5.364h-6.389l.026-9.487zm9.511-8.783v-1.84h-3.148v7.16H21.5v-1.822h2.353v-3.515l-2.353.017zm-3.13-1.822v7.125h5.468V16.8h1.823v-3.48h-1.823v-1.822H18.37z" clip-rule="evenodd"/>
    <path fill="#12121B" fill-rule="evenodd" d="M15.238 18.972h-2.9v2.782h2.9V31.2h2.767l.016-4.976v-4.47h2.52v1.989h1.657v1.988h1.657v1.99h1.492v3.48h1.662v-3.944h-1.657V25.27h-1.658V21.09h1.492v-1.49h1.491v-9.08h-1.491V9.028h-1.492v-.646h-8.456v5.286h-2.9v1.022h2.9v4.28zm-3.249-3.932v-1.72h2.9V8.035h9.154v.645h1.492v1.492h1.49v9.777h-1.49v1.491h-1.492v3.48H25.7v1.989h1.657v4.64h-2.36v-3.48h-1.49V26.08h-1.658v-1.988h-1.657v-1.989H18.37v4.122l-.017 5.324H14.89v-9.446h-2.9v-3.48h2.9V15.04h-2.9zm0 3.583V15.04H9.063v-3.543h2.9V8.035h2.926v-.018h10.938V9.84h1.49v1.492h1.492v7.457h-1.491v1.491h-1.492v1.823H24.17v1.989h1.657v1.988h1.658v1.989h1.657v3.48h-1.784v.041H22.66v-1.892h-1.576v-1.63h-1.598v-1.843h-1.117v5.324h-.017v.041h-6.389l.026-9.487H9.063v-3.48h2.926zm-.348-.349V15.39H8.715v-4.24h2.9V7.686h2.926v-.017h11.634v1.823h1.492v1.49h1.491v8.155h-1.491v1.492h-1.492v1.823h-1.657v1.29h1.657v1.99h1.657v1.988h1.657v4.177h-1.783v.042h-5.394v-1.892h-1.577v-1.63h-1.598v-1.843h-.419v5.323H18.7v.042h-7.086l.026-9.487H8.715v-4.178h2.926zm9.51-4.603v-1.825h-2.433v6.428h2.434V16.47h2.337v-.018h.015V13.67h-.015v-.015l-2.337.018zm2.687-.368v.017h.015v3.48h-.015v.018H21.5v1.805h-3.13v-7.126h3.13v1.823l2.338-.017zm0 0h.015v.017h1.808v3.48h-1.808v.018h-.015v1.805H21.5v.017h-3.148v-7.16H21.5v.017h2.338v1.806zm-1.989 5.669v.017h-3.846v-7.858h3.846v.018h2.338v1.803h.015v.02h1.807v4.177h-1.807v.017h-.015v1.806h-2.338z" clip-rule="evenodd"/>
    <path fill="#03E1E4" fill-rule="evenodd" d="M14.892 8.018H25.83V9.84h1.492v1.492h1.491v7.457h-1.491v1.491h-1.492v1.823h-1.657v1.989h1.657v1.988h1.657v1.99h1.657v3.48h-4.142v-3.48h-1.492v-1.99h-1.657v-1.988h-1.657v-1.989h-1.823v9.446h-3.48V8.018zm8.949 3.48h-5.469v7.125h5.469V16.8h1.822v-3.48h-1.822v-1.822z" clip-rule="evenodd"/>
    <path fill="#03E1E4" d="M14.892 15.034v-3.536h-2.9v3.536h2.9zM14.892 18.623h-2.9v3.48h2.9v-3.48z"/>
</svg>
