<svg width="40" height="40" viewBox="0 0 40 40" fill="none" xmlns="http://www.w3.org/2000/svg">
<path d="M20 0C31.0452 0 40 8.9548 40 20C40 31.0452 31.0448 40 20 40C8.9552 40 0 31.0476 0 20C0 8.9524 8.9536 0 20 0Z" fill="#F3BA2F"/>
<path d="M14.9526 17.9249L20.0025 12.8773L25.0544 17.929L27.991 14.9904L20.0025 7L12.0139 14.9883L14.9526 17.9249Z" fill="white"/>
<path d="M7 20.0004L9.93765 17.0629L12.8753 20.0004L9.93765 22.938L7 20.0004Z" fill="white"/>
<path d="M14.9527 22.0751L20.0025 27.1248L25.0544 22.0731L27.9931 25.0076L20.0025 33L12.0098 25.0096L14.9527 22.0751Z" fill="white"/>
<path d="M27.1247 20.0012L30.0624 17.0636L33 20.0012L30.0624 22.9388L27.1247 20.0012Z" fill="white"/>
<path d="M22.9823 19.999L20.0025 17.0172L17.799 19.2207L17.5443 19.4733L17.0186 19.999L17.0227 20.0052L20.0025 22.9828L22.9843 19.999H22.9823Z" fill="white"/>
</svg>
