<svg xmlns="http://www.w3.org/2000/svg" width="40" height="40" fill="none" viewBox="0 0 40 40">
    <path fill="#F7931A" d="M39.4 24.84C36.732 35.554 25.878 42.074 15.16 39.4 4.443 36.727-2.074 25.879.6 15.165 3.274 4.448 14.122-2.076 24.837.598 35.55 3.274 42.075 14.123 39.4 24.84z"/>
    <path fill="#fff" d="M28.82 17.15c.398-2.662-1.628-4.093-4.4-5.048l.9-3.605-2.195-.547-.876 3.51a86.425 86.425 0 0 0-1.758-.413l.88-3.533-2.193-.547-.897 3.603-4.427-1.096-.584 2.344s1.629.373 1.594.397c.889.222 1.05.81 1.023 1.276l-2.463 9.876c-.109.27-.384.675-1.005.52.021.032-1.596-.4-1.596-.4l-1.09 2.516 4.42 1.116-.908 3.647 2.192.547.9-3.608c.6.163 1.18.313 1.749.454l-.897 3.591 2.195.547.909-3.64c3.742.708 6.557.422 7.74-2.96.954-2.725-.047-4.297-2.016-5.323 1.434-.332 2.514-1.275 2.802-3.223l.002-.002zm-5.015 7.031c-.68 2.725-5.267 1.252-6.756.883l1.205-4.832c1.488.372 6.258 1.107 5.552 3.949h-.001zm.68-7.07c-.618 2.48-4.438 1.22-5.677.91l1.09-4.383c1.24.31 5.231.886 4.586 3.472"/>
</svg>
