<svg xmlns="http://www.w3.org/2000/svg" width="23" height="23" fill="none" viewBox="0 0 23 23">
    <circle cx="11.5" cy="11.5" r="11.5" fill="#fff"/>
    <path fill="#C2A633" d="M11.757 7.575h-1.64v3.238h2.58v1.355h-2.58v3.238h1.72c.442 0 3.63.05 3.625-3.767-.005-3.817-3.092-4.064-3.705-4.064z"/>
    <path fill="#C2A633" d="M11.48 0C5.14 0 0 5.146 0 11.495c0 6.348 5.14 11.494 11.48 11.494 6.341 0 11.481-5.146 11.481-11.495C22.961 5.147 17.821 0 11.481 0zm.452 17.703H7.774v-5.534H6.308v-1.356h1.466V5.278h3.568c.844 0 6.436-.175 6.436 6.316 0 6.6-5.846 6.109-5.846 6.109z"/>
</svg>
