<svg xmlns="http://www.w3.org/2000/svg" fill-rule="evenodd" stroke-linejoin="round" stroke-miterlimit="2" clip-rule="evenodd" viewBox="0 0 64 64"><rect width="64" height="64" fill="none"/><path fill="#738b95" d="M426.968,362.73C426.356,363.671 426,364.794 426,366C424,367 421,367 420,366C418.731,364.731 419,364 416,362C415.331,361.554 414.754,361.429 414.279,361.367C413.994,361.408 413.759,361.613 413.678,361.89C413.598,362.166 413.687,362.465 413.905,362.653C414.686,363.259 415.729,364.187 416,365C417,368 419,370 422,370C423.81,370 425.096,369.738 426,369.403L426,373.87C426,375.231 425.308,376.5 424.163,377.236C423.017,377.972 421.576,378.075 420.337,377.509C410.708,373.044 404,363.299 404,352C404,336.546 416.546,324 432,324C447.454,324 460,336.546 460,352C460,363.299 453.292,373.044 443.644,377.468C442.419,378.027 440.994,377.925 439.862,377.198C438.729,376.47 438.044,375.216 438.044,373.87C438,370.185 438,366 438,366C438,364.831 437.659,363.696 437.031,362.73C444.536,361.812 448,358.408 448,350.5C448,347.777 447.076,345.515 445.589,343.698C446.361,341.615 446.555,339.13 446.215,337.006C446.163,336.737 446.004,336.501 445.773,336.353C445.543,336.206 445.262,336.16 444.996,336.225C442.388,336.87 440.338,337.863 438.822,339.19C436.576,338.392 434.19,338 432,338C429.81,338 427.424,338.392 425.178,339.19C423.662,337.863 421.612,336.87 419.004,336.225C418.738,336.16 418.457,336.206 418.227,336.353C417.996,336.501 417.837,336.737 417.785,337.006C417.445,339.13 417.639,341.615 418.411,343.698C416.924,345.515 416,347.777 416,350.5C416,358.407 419.464,361.811 426.968,362.73Z" transform="translate(-400 -320)"/><path fill="#617881" d="M422.935,377.76C422.077,377.966 421.162,377.886 420.337,377.509C410.708,373.044 404,363.299 404,352C404,336.546 416.546,324 432,324C432.314,324 432.626,324.005 432.935,324.015C417.913,324.511 405.871,336.86 405.871,352C405.871,363.299 412.578,373.044 422.208,377.509C422.444,377.617 422.688,377.7 422.935,377.76ZM445.931,336.479C446.235,336.389 446.547,336.305 446.867,336.225C447.132,336.16 447.414,336.206 447.644,336.353C447.875,336.501 448.034,336.737 448.085,337.006C448.425,339.13 448.232,341.615 447.46,343.698C448.947,345.515 449.871,347.777 449.871,350.5C449.871,358.408 446.406,361.812 438.902,362.73C439.529,363.696 439.871,364.831 439.871,366C439.871,366 439.871,370.185 439.915,373.87C439.915,375.216 440.6,376.47 441.732,377.198C442.107,377.438 442.514,377.611 442.936,377.713C441.894,377.967 440.782,377.789 439.862,377.198C438.729,376.47 438.044,375.216 438.044,373.87C438,370.185 438,366 438,366C438,364.831 437.659,363.696 437.031,362.73C444.536,361.812 448,358.408 448,350.5C448,347.777 447.076,345.515 445.589,343.698C446.361,341.615 446.555,339.13 446.215,337.006C446.176,336.804 446.076,336.62 445.931,336.479ZM426,369.859C425.387,369.947 424.681,370 423.871,370C423.628,370 423.391,369.987 423.162,369.961C424.378,369.876 425.303,369.661 426,369.403L426,369.859ZM415.599,361.763C415.706,361.552 415.91,361.402 416.15,361.367C416.625,361.429 417.201,361.554 417.871,362C420.871,364 420.601,364.731 421.871,366C422.231,366.36 422.851,366.591 423.59,366.691C422.098,366.87 420.64,366.64 420,366C418.731,364.731 419,364 416,362C415.862,361.908 415.729,361.83 415.599,361.763ZM432.935,338.024C433.25,338.008 433.563,338 433.871,338C435.627,338 437.509,338.252 439.343,338.764C439.163,338.902 438.989,339.044 438.822,339.19C436.892,338.504 434.859,338.118 432.935,338.024ZM419.939,336.479C419.987,336.432 420.04,336.39 420.097,336.353C420.328,336.206 420.609,336.16 420.875,336.225C423.195,336.799 425.074,337.649 426.527,338.764C426.074,338.89 425.623,339.032 425.178,339.19C423.848,338.026 422.107,337.119 419.939,336.479Z" transform="translate(-400 -320)"/><path d="M414.227,362.269C415.077,362.931 416.18,363.96 416.474,364.842C417.4,367.618 419.224,369.5 422,369.5C423.731,369.5 424.962,369.254 425.827,368.934C425.98,368.878 426.151,368.9 426.286,368.993C426.42,369.087 426.5,369.24 426.5,369.403C426.5,369.403 426.5,373.87 426.5,373.869C426.5,375.401 425.722,376.828 424.433,377.656C423.144,378.485 421.523,378.6 420.127,377.962C410.326,373.419 403.5,363.5 403.5,352C403.5,336.27 416.27,323.5 432,323.5C447.73,323.5 460.5,336.27 460.5,352C460.5,363.501 453.673,373.42 443.852,377.922C442.472,378.553 440.867,378.438 439.591,377.618C438.316,376.798 437.544,375.386 437.544,373.876C437.5,370.188 437.5,366 437.5,366C437.5,364.928 437.187,363.888 436.612,363.003C436.518,362.858 436.505,362.675 436.578,362.519C436.651,362.363 436.799,362.255 436.97,362.234C440.579,361.792 443.227,360.777 444.962,358.897C446.695,357.02 447.5,354.297 447.5,350.5C447.5,347.903 446.62,345.747 445.203,344.015C445.09,343.878 445.059,343.691 445.121,343.525C445.862,341.523 446.048,339.137 445.722,337.095C445.696,336.963 445.617,336.847 445.504,336.774C445.389,336.701 445.249,336.678 445.116,336.711C442.598,337.334 440.615,338.285 439.151,339.567C439.015,339.686 438.825,339.722 438.654,339.662C436.464,338.882 434.137,338.5 432,338.5C429.863,338.5 427.536,338.882 425.346,339.662C425.175,339.722 424.985,339.686 424.849,339.567C423.385,338.285 421.402,337.334 418.884,336.711C418.751,336.678 418.611,336.701 418.496,336.774C418.383,336.847 418.304,336.963 418.278,337.095C417.952,339.137 418.138,341.523 418.879,343.525C418.941,343.691 418.91,343.878 418.797,344.015C417.38,345.747 416.5,347.903 416.5,350.5C416.5,354.296 417.305,357.02 419.037,358.896C420.772,360.776 423.42,361.792 427.029,362.234C427.201,362.255 427.349,362.363 427.422,362.519C427.495,362.676 427.482,362.859 427.387,363.003C426.826,363.865 426.5,364.895 426.5,366C426.5,366.189 426.393,366.363 426.224,366.447C424.943,367.088 423.279,367.346 421.921,367.218C420.936,367.125 420.111,366.818 419.646,366.354C418.399,365.106 418.671,364.381 415.723,362.416C415.176,362.052 414.7,361.933 414.301,361.875C414.233,361.901 414.179,361.957 414.159,362.029C414.133,362.116 414.16,362.209 414.227,362.269ZM437.83,363.126C438.267,364.012 438.5,364.994 438.5,366C438.5,366 438.5,370.182 438.544,373.87C438.544,375.046 439.142,376.141 440.132,376.777C441.121,377.413 442.366,377.502 443.436,377.013C452.912,372.669 459.5,363.098 459.5,352C459.5,336.822 447.178,324.5 432,324.5C416.822,324.5 404.5,336.822 404.5,352C404.5,363.099 411.089,372.67 420.545,377.054C421.629,377.549 422.89,377.459 423.892,376.815C424.895,376.171 425.5,375.061 425.5,373.87L425.5,370.088C424.621,370.329 423.478,370.5 422,370.5C418.776,370.5 416.6,368.382 415.526,365.158C415.28,364.42 414.308,363.598 413.599,363.048C413.592,363.043 413.586,363.037 413.58,363.032C413.212,362.716 413.063,362.215 413.198,361.75C413.333,361.285 413.728,360.942 414.207,360.872C414.252,360.865 414.298,360.865 414.343,360.871C414.878,360.94 415.525,361.082 416.277,361.584C419.329,363.619 419.062,364.355 420.354,365.646C420.689,365.982 421.303,366.155 422.015,366.222C423.109,366.325 424.431,366.145 425.508,365.677C425.553,364.765 425.785,363.902 426.169,363.126C422.651,362.598 420.055,361.473 418.303,359.575C416.427,357.543 415.5,354.611 415.5,350.5C415.5,347.76 416.394,345.467 417.846,343.604C417.125,341.499 416.953,339.041 417.292,336.927C417.292,336.922 417.293,336.917 417.294,336.913C417.371,336.509 417.611,336.154 417.957,335.932C418.303,335.711 418.725,335.641 419.124,335.74C421.696,336.376 423.741,337.346 425.284,338.624C427.504,337.87 429.845,337.5 432,337.5C434.155,337.5 436.496,337.87 438.716,338.624C440.259,337.346 442.304,336.376 444.876,335.74C445.275,335.641 445.697,335.711 446.043,335.932C446.389,336.154 446.629,336.509 446.706,336.913L446.708,336.927C447.047,339.041 446.875,341.499 446.154,343.604C447.606,345.467 448.5,347.76 448.5,350.5C448.5,354.611 447.573,357.543 445.697,359.575C443.944,361.474 441.348,362.599 437.83,363.126Z" transform="translate(-400 -320)"/></svg>