<svg width="33" height="33" viewBox="0 0 33 33" fill="none" xmlns="http://www.w3.org/2000/svg">
<rect width="33" height="33" rx="6" fill="#FFDC00"/>
<rect x="1" y="1" width="31" height="31" rx="5" stroke="#FFF199" stroke-width="2"/>
<path fill-rule="evenodd" clip-rule="evenodd" d="M7.10526 12.2965V13.4017H6V20.0333H7.10526V21.1386H25.8947V20.0333H27V13.4017H25.8947V12.2965H24.7895V13.4017H23.6842V14.507H22.5789V15.6123H21.4737V14.507H20.3684V13.4017H19.2632V12.2965H18.1579V11.1912H17.0526V10.0859H15.9474V11.1912H14.8421V12.2965H13.7368V13.4017H12.6316V14.507H11.5263V15.6123H10.4211V14.507H9.31579V13.4017H8.21053V12.2965H7.10526ZM15.9474 15.6123V14.507H17.0526V15.6123H18.1579V16.7175H17.0526V17.8228H15.9474V16.7175H14.8421V15.6123H15.9474Z" fill="black" fill-opacity="0.25"/>
<path d="M11.5263 12.2965V13.4017H12.6316V12.2965H11.5263Z" fill="black" fill-opacity="0.25"/>
<path d="M11.5263 11.1912H10.4211V12.2965H11.5263V11.1912Z" fill="black" fill-opacity="0.25"/>
<path d="M9.31579 12.2965V13.4017H10.4211V12.2965H9.31579Z" fill="black" fill-opacity="0.25"/>
<path d="M21.4737 13.4017V12.2965H20.3684V13.4017H21.4737Z" fill="black" fill-opacity="0.25"/>
<path d="M22.5789 12.2965V11.1912H21.4737V12.2965H22.5789Z" fill="black" fill-opacity="0.25"/>
<path d="M23.6842 13.4017V12.2965H22.5789V13.4017H23.6842Z" fill="black" fill-opacity="0.25"/>
<path d="M25.8947 23.3491H27V21.1386H25.8947V23.3491Z" fill="black" fill-opacity="0.25"/>
<path d="M7.10526 24.4544H25.8947V23.3491H7.10526V24.4544Z" fill="black" fill-opacity="0.25"/>
<path d="M6 21.1386V23.3491H7.10526V21.1386H6Z" fill="black" fill-opacity="0.25"/>
<path fill-rule="evenodd" clip-rule="evenodd" d="M7.10526 11.191V12.2963H6V18.9278H7.10526V20.0331H25.8947V18.9278H27V12.2963H25.8947V11.191H24.7895V12.2963H23.6842V13.4015H22.5789V14.5068H21.4737V13.4015H20.3684V12.2963H19.2632V11.191H18.1579V10.0857H17.0526V8.98047H15.9474V10.0857H14.8421V11.191H13.7368V12.2963H12.6316V13.4015H11.5263V14.5068H10.4211V13.4015H9.31579V12.2963H8.21053V11.191H7.10526ZM15.9474 14.5068V13.4015H17.0526V14.5068H18.1579V15.612H17.0526V16.7173H15.9474V15.612H14.8421V14.5068H15.9474Z" fill="#2F3045"/>
<path d="M11.5263 11.191V12.2963H12.6316V11.191H11.5263Z" fill="#2F3045"/>
<path d="M11.5263 10.0857H10.4211V11.191H11.5263V10.0857Z" fill="#2F3045"/>
<path d="M9.31579 11.191V12.2963H10.4211V11.191H9.31579Z" fill="#2F3045"/>
<path d="M21.4737 12.2963V11.191H20.3684V12.2963H21.4737Z" fill="#2F3045"/>
<path d="M22.5789 11.191V10.0857H21.4737V11.191H22.5789Z" fill="#2F3045"/>
<path d="M23.6842 12.2963V11.191H22.5789V12.2963H23.6842Z" fill="#2F3045"/>
<path d="M25.8947 22.2436H27V20.0331H25.8947V22.2436Z" fill="#2F3045"/>
<path d="M7.10526 23.3489H25.8947V22.2436H7.10526V23.3489Z" fill="#2F3045"/>
<path d="M6 20.0331V22.2436H7.10526V20.0331H6Z" fill="#2F3045"/>
</svg>
