<svg width="24" height="24" viewBox="0 0 24 24" fill="none" xmlns="http://www.w3.org/2000/svg">
<path d="M21 0H3C1.34315 0 0 1.34315 0 3V21C0 22.6569 1.34315 24 3 24H21C22.6569 24 24 22.6569 24 21V3C24 1.34315 22.6569 0 21 0Z" fill="#D3392F"/>
<path d="M19.8847 8.44722C19.204 7.97115 18.4762 7.46361 17.764 6.96001C17.7483 6.9482 17.7326 6.9364 17.7129 6.9246C17.6342 6.86558 17.5437 6.80263 17.4336 6.76722L17.4257 6.76328C15.5214 6.30296 13.5857 5.83083 11.7129 5.37443C10.0132 4.96132 8.31749 4.5482 6.61782 4.13509C6.57454 4.12328 6.53126 4.11148 6.48405 4.09968C6.33061 4.0564 6.15356 4.00919 5.9647 4.03279C5.90962 4.04066 5.86241 4.06033 5.81913 4.08787L5.77192 4.12722C5.69716 4.19804 5.65782 4.28853 5.63815 4.33968L5.62634 4.37115V4.55214L5.63421 4.57968C6.70831 7.58951 7.80995 10.6426 8.87224 13.5974C9.6906 15.8715 10.5404 18.2282 11.3706 20.5416C11.4218 20.699 11.5673 20.8013 11.7483 20.8171H11.7877C11.9568 20.8171 12.1063 20.7344 12.1811 20.6007L15.2972 16.0564C16.0565 14.9508 16.8159 13.8413 17.5752 12.7357C17.886 12.2833 18.1968 11.8269 18.5077 11.3744C19.0191 10.6269 19.5463 9.85574 20.0696 9.10427L20.0972 9.06492V9.01771C20.109 8.88001 20.1129 8.59673 19.8847 8.44722M16.2336 10.1036C15.5018 10.4853 14.7542 10.8787 14.0027 11.2682C14.4395 10.8 14.8801 10.3279 15.3168 9.85968C15.8637 9.26951 16.4342 8.65968 16.9929 8.06164L17.0047 8.04984C17.0519 7.98689 17.1109 7.92787 17.1739 7.86492C17.2172 7.82164 17.2644 7.77837 17.3077 7.72722C17.5988 7.92787 17.8939 8.13246 18.1772 8.33312C18.3818 8.47869 18.5903 8.62427 18.8027 8.76984C17.9372 9.2105 17.0716 9.66296 16.2336 10.1036ZM14.3529 9.91476C13.7903 10.5246 13.208 11.1502 12.6296 11.7679C11.5083 10.4066 10.3634 9.02558 9.25388 7.69181C8.75028 7.08591 8.24274 6.47607 7.73913 5.87017L7.7352 5.86624C7.6211 5.7364 7.51093 5.59476 7.40077 5.46099C7.32995 5.3705 7.2552 5.28394 7.18044 5.19345C7.63683 5.31148 8.09716 5.42165 8.54962 5.52787C8.947 5.6223 9.36011 5.72066 9.76536 5.82296C12.0473 6.37771 14.3332 6.93246 16.6152 7.48722C15.8558 8.29771 15.0926 9.12001 14.3529 9.91476ZM12.3739 17.583C12.4172 17.1698 12.4644 16.7449 12.5037 16.3279C12.5391 15.9934 12.5745 15.6512 12.6099 15.3246C12.665 14.8013 12.724 14.2584 12.7713 13.7272L12.7831 13.6328C12.8224 13.2944 12.8618 12.9443 12.8854 12.5941C12.9286 12.5705 12.9759 12.5469 13.027 12.5272C13.086 12.4997 13.145 12.4761 13.204 12.4407C14.1129 11.9646 15.0218 11.4885 15.9345 11.0164C16.8434 10.5443 17.7758 10.0564 18.7004 9.57246C17.8585 10.7921 17.0126 12.0236 16.1942 13.2236C15.4899 14.2505 14.766 15.3089 14.046 16.3515C13.7627 16.7685 13.4677 17.1934 13.1883 17.6026C12.8736 18.059 12.5509 18.5272 12.2362 18.9954C12.2755 18.5233 12.3227 18.0472 12.3739 17.583M6.88929 6.12197C6.83815 5.98033 6.78306 5.83476 6.73585 5.69706C7.79815 6.97968 8.86831 8.27017 9.91093 9.52132C10.4499 10.1705 10.989 10.8157 11.528 11.4689C11.6342 11.5908 11.7404 11.7207 11.8427 11.8466C11.9765 12.0079 12.1103 12.1771 12.2559 12.3384C12.2086 12.7436 12.1693 13.1528 12.126 13.5462C12.0985 13.8216 12.0709 14.0971 12.0395 14.3764V14.3803C12.0277 14.5574 12.004 14.7344 11.9844 14.9075C11.9568 15.1475 11.8939 15.6905 11.8939 15.6905L11.8899 15.718C11.8191 16.5128 11.7326 17.3154 11.6499 18.0944C11.6145 18.4171 11.5831 18.7475 11.5477 19.078C11.528 19.019 11.5044 18.96 11.4847 18.9049C11.4257 18.7475 11.3667 18.5823 11.3116 18.421L10.8906 17.2525C9.55683 13.5423 8.22306 9.83607 6.88929 6.12197Z" fill="white"/>
</svg>
